HIERARCHY
ROOT Hips
{
	OFFSET 0.000000 0.000000 0.000000
	CHANNELS 6 Xposition Yposition Zposition Zrotation Yrotation Xrotation
	JOINT LHipJoint
	{
		OFFSET 0.000000 0.000000 0.000000
		CHANNELS 3 Zrotation Yrotation Xrotation
		JOINT LeftUpLeg
		{
			OFFSET 1.363060 -1.794630 0.839290
			CHANNELS 3 Zrotation Yrotation Xrotation
			JOINT LeftLeg
			{
				OFFSET 2.448110 -6.726130 0.000000
				CHANNELS 3 Zrotation Yrotation Xrotation
				JOINT LeftFoot
				{
					OFFSET 2.562200 -7.039590 0.000000
					CHANNELS 3 Zrotation Yrotation Xrotation
					JOINT LeftToeBase
					{
						OFFSET 0.157640 -0.433110 2.322550
						CHANNELS 3 Zrotation Yrotation Xrotation
						End Site
						{
							OFFSET 0.000000 0.000000 0.000000
						}
					}
				}
			}
		}
	}
	JOINT RHipJoint
	{
		OFFSET 0.000000 0.000000 0.000000
		CHANNELS 3 Zrotation Yrotation Xrotation
		JOINT RightUpLeg
		{
			OFFSET -1.305520 -1.794630 0.839290
			CHANNELS 3 Zrotation Yrotation Xrotation
			JOINT RightLeg
			{
				OFFSET -2.542530 -6.985550 0.000000
				CHANNELS 3 Zrotation Yrotation Xrotation
				JOINT RightFoot
				{
					OFFSET -2.568260 -7.056230 0.000000
					CHANNELS 3 Zrotation Yrotation Xrotation
					JOINT RightToeBase
					{
						OFFSET -0.164730 -0.452590 2.363150
						CHANNELS 3 Zrotation Yrotation Xrotation
						End Site
						{
							OFFSET 0.000000 0.000000 0.000000
						}
					}
				}
			}
		}
	}
	JOINT LowerBack
	{
		OFFSET 0.000000 0.000000 0.000000
		CHANNELS 3 Zrotation Yrotation Xrotation
		JOINT Spine
		{
			OFFSET 0.028270 2.035590 -0.193380
			CHANNELS 3 Zrotation Yrotation Xrotation
			JOINT Spine1
			{
				OFFSET 0.056720 2.048850 -0.042750
				CHANNELS 3 Zrotation Yrotation Xrotation
				JOINT Neck
				{
					OFFSET 0.000000 0.000000 0.000000
					CHANNELS 3 Zrotation Yrotation Xrotation
					JOINT Neck1
					{
						OFFSET -0.054170 1.746240 0.172020
						CHANNELS 3 Zrotation Yrotation Xrotation
						JOINT Head
						{
							OFFSET 0.104070 1.761360 -0.123970
							CHANNELS 3 Zrotation Yrotation Xrotation
							End Site
							{
								OFFSET 0.000000 0.000000 0.000000
							}
						}
					}
				}
				JOINT LeftShoulder
				{
					OFFSET 0.000000 0.000000 0.000000
					CHANNELS 3 Zrotation Yrotation Xrotation
					JOINT LeftArm
					{
						OFFSET 3.362410 1.200890 -0.311210
						CHANNELS 3 Zrotation Yrotation Xrotation
						JOINT LeftForeArm
						{
							OFFSET 4.983000 -0.000000 -0.000000
							CHANNELS 3 Zrotation Yrotation Xrotation
							JOINT LeftHand
							{
								OFFSET 3.483560 -0.000000 -0.000000
								CHANNELS 3 Zrotation Yrotation Xrotation
								JOINT LeftFingerBase
								{
									OFFSET 0.000000 0.000000 0.000000
									CHANNELS 3 Zrotation Yrotation Xrotation
									JOINT LeftHandIndex1
									{
										OFFSET 0.715260 -0.000000 -0.000000
										CHANNELS 3 Zrotation Yrotation Xrotation
										End Site
										{
											OFFSET 0.000000 0.000000 0.000000
										}
									}
								}
								JOINT LThumb
								{
									OFFSET 0.000000 0.000000 0.000000
									CHANNELS 3 Zrotation Yrotation Xrotation
									End Site
									{
										OFFSET 0.000000 0.000000 0.000000
									}
								}
							}
						}
					}
				}
				JOINT RightShoulder
				{
					OFFSET 0.000000 0.000000 0.000000
					CHANNELS 3 Zrotation Yrotation Xrotation
					JOINT RightArm
					{
						OFFSET -3.136600 1.374050 -0.404650
						CHANNELS 3 Zrotation Yrotation Xrotation
						JOINT RightForeArm
						{
							OFFSET -5.241900 -0.000000 -0.000000
							CHANNELS 3 Zrotation Yrotation Xrotation
							JOINT RightHand
							{
								OFFSET -3.444170 -0.000000 -0.000000
								CHANNELS 3 Zrotation Yrotation Xrotation
								JOINT RightFingerBase
								{
									OFFSET 0.000000 0.000000 0.000000
									CHANNELS 3 Zrotation Yrotation Xrotation
									JOINT RightHandIndex1
									{
										OFFSET -0.622530 -0.000000 -0.000000
										CHANNELS 3 Zrotation Yrotation Xrotation
										End Site
										{
											OFFSET 0.000000 0.000000 0.000000
										}
									}
								}
								JOINT RThumb
								{
									OFFSET 0.000000 0.000000 0.000000
									CHANNELS 3 Zrotation Yrotation Xrotation
									End Site
									{
										OFFSET 0.000000 0.000000 0.000000
									}
								}
							}
						}
					}
				}
			}
		}
	}
}
MOTION
Frames: 8
Frame Time: 0.008333
7.893285 15.712370 1.625520 3.676175 -39.548455 9.477032 -12.304113 20.864468 -14.050647 -16.758614 -11.547086 -30.555133 31.334744 1.642796 90.147396 42.362800 -15.900587 0.644737 -11.843696 19.545426 -11.788327 3.645341 -24.379843 -6.557508 15.847368 1.661258 -17.681665 -20.383464 -13.908826 66.798771 -36.449148 6.097764 -18.064998 7.017296 -13.396602 -21.594492 4.893508 -0.027373 38.696038 2.150693 2.029629 1.521654 -8.272403 -1.578127 -23.242030 -5.418808 -4.973557 -14.810631 2.478387 -3.808620 -5.072306 -2.527450 0.485472 -16.905949 8.851146 28.170430 5.879717 -64.984393 -5.905201 39.981183 -14.925740 -80.143491 18.112660 11.051798 -15.148167 13.339794 -3.739835 14.045089 -0.000000 0.000000 0.000000 0.000000 0.000000 0.000000 0.000000 -12.932659 -23.731365 -5.629117 92.391450 14.773794 41.819376 -1.935098 85.650298 3.837141 -12.244160 35.571536 9.002012 -1.046127 -8.455758 -0.000000 0.000000 0.000000 0.000000 0.000000 0.000000 0.000000 
7.630155 15.745160 1.877145 3.492458 -38.478133 9.210757 -12.483701 21.782414 -15.152679 -19.094482 -12.553455 -30.745087 30.785975 0.731485 89.376124 40.059843 -13.858082 -0.581755 -11.681689 17.831016 -12.172397 3.529532 -24.358437 -5.400832 15.083764 0.781107 -16.488604 -19.647154 -14.926632 65.226019 -36.917454 6.826628 -17.091490 7.092685 -14.237401 -22.199826 5.366874 -0.445929 38.504463 1.768254 1.758992 1.600616 -8.306875 -1.347454 -23.208186 -5.415273 -5.152915 -14.914182 2.643006 -3.929869 -4.785195 -2.506431 0.317540 -16.791668 9.157414 28.653326 6.401974 -63.689481 -5.331571 40.460828 -15.914664 -80.963226 18.737030 11.103148 -15.401310 13.676093 -3.956660 14.023119 -0.000000 0.000000 0.000000 0.000000 0.000000 0.000000 0.000000 -13.231197 -24.007846 -5.596891 92.671124 15.205882 42.322005 -4.104414 89.695512 2.165145 -12.786421 35.929596 8.993029 -1.848467 -8.038454 -0.000000 0.000000 0.000000 0.000000 0.000000 0.000000 0.000000 
7.363260 15.781520 2.132535 3.299358 -37.420193 8.961746 -12.646977 22.707271 -16.219565 -21.509904 -13.502126 -30.712350 30.158693 -0.039864 88.162220 38.126829 -12.351669 -1.579909 -11.556130 16.326413 -12.523721 3.431639 -24.328504 -4.270776 14.390498 -0.090197 -15.189211 -18.884459 -15.913278 63.405331 -37.434945 7.717759 -15.964790 7.212975 -15.160486 -22.883485 5.776039 -0.866014 38.289956 1.305931 1.453545 1.664807 -8.230543 -1.053285 -23.177298 -5.389047 -5.340672 -15.051037 2.807866 -4.055978 -4.495492 -2.487140 0.144077 -16.673681 9.504115 29.060070 6.940657 -62.451053 -4.745658 40.957709 -17.151257 -81.777308 19.185973 11.197230 -15.548488 13.946012 -4.071461 13.990083 -0.000000 0.000000 0.000000 0.000000 0.000000 0.000000 0.000000 -13.459842 -24.231152 -5.553997 92.788728 15.769762 42.701907 173.631296 86.501737 -179.485402 -13.869327 36.641450 9.526280 -2.887345 -7.587305 -0.000000 0.000000 0.000000 0.000000 0.000000 0.000000 0.000000 
7.093395 15.823520 2.390655 3.086546 -36.396016 8.744736 -12.812534 23.540222 -17.203371 -23.926172 -14.396800 -30.450395 29.444724 -0.733557 86.493716 36.168994 -11.284740 -2.401852 -11.579941 15.095366 -12.904369 3.352231 -24.357356 -3.267424 13.842622 -0.885125 -13.890872 -18.338084 -16.798896 61.729480 -38.151151 8.882036 -14.531304 7.359471 -16.370642 -23.410804 6.119832 -1.178829 38.110394 0.967852 1.242182 1.684107 -8.187740 -0.859825 -23.084573 -5.341743 -5.553350 -15.245599 2.951735 -4.199494 -4.249436 -2.475011 -0.022438 -16.577572 9.800342 29.417557 7.463316 -61.239805 -4.202826 41.511570 -18.441910 -82.564003 19.628190 11.311793 -15.675476 14.215992 -4.183344 13.969500 0.000000 0.000000 0.000000 0.000000 0.000000 0.000000 0.000000 -13.705284 -24.450883 -5.371272 92.839676 16.305312 42.784231 171.366242 82.774303 179.016633 -14.907989 37.029466 10.085635 -3.909640 -7.223978 -0.000000 0.000000 0.000000 0.000000 0.000000 0.000000 0.000000 
6.819150 15.869660 2.656665 2.886377 -35.443700 8.532494 -12.957277 24.321881 -18.115803 -26.345522 -15.133766 -29.954326 28.722775 -1.316054 84.383428 34.688669 -10.604614 -3.068709 -11.530444 13.904588 -13.034772 3.289606 -24.385278 -2.300238 13.305691 -1.657140 -12.557757 -17.820531 -17.668088 59.946178 -39.090992 10.277042 -12.855167 7.520317 -17.759920 -23.935603 6.423817 -1.471355 37.863932 0.569090 0.999710 1.826752 -8.096989 -0.636663 -23.112155 -5.292235 -5.740939 -15.473217 3.088873 -4.323570 -4.001151 -2.463284 -0.180913 -16.474191 10.059134 29.808223 7.976797 -60.018848 -3.666779 42.224106 -19.878682 -83.319939 19.987214 11.492456 -15.866923 14.484937 -4.226790 13.937412 0.000000 0.000000 0.000000 0.000000 0.000000 0.000000 0.000000 -13.860911 -24.735894 -5.141914 92.797138 16.847083 42.691972 169.077507 79.255896 177.884373 -15.815896 37.208835 10.645122 -4.813219 -6.946545 -0.000000 0.000000 0.000000 0.000000 0.000000 0.000000 0.000000 
6.540945 15.919235 2.927115 2.703005 -34.489975 8.347395 -13.067239 25.037401 -18.938853 -28.740077 -15.780190 -29.285785 27.893643 -1.855153 81.901528 33.106403 -10.391037 -3.642413 -11.679154 13.004089 -13.375942 3.235392 -24.391596 -1.409695 12.817970 -2.360668 -11.184227 -17.242153 -18.466612 58.099582 -40.075219 12.136891 -10.915695 7.825307 -19.500975 -24.494060 6.684965 -1.746736 37.577658 0.163919 0.739682 1.944222 -7.990106 -0.407937 -23.095342 -5.224163 -5.929000 -15.731878 3.222677 -4.448536 -3.785448 -2.453219 -0.342397 -16.377746 10.293028 30.123262 8.540171 -58.916275 -3.120779 42.850618 -21.304275 -84.053170 20.331839 11.718513 -15.779293 14.774161 -4.268631 13.950572 0.000000 0.000000 0.000000 0.000000 0.000000 0.000000 0.000000 -13.982427 -24.975510 -4.885556 92.726141 17.338996 42.493868 167.081476 76.063519 177.042682 -16.443056 37.336291 11.015726 -5.552722 -6.721413 -0.000000 0.000000 0.000000 0.000000 0.000000 0.000000 0.000000 
6.259260 15.972995 3.201735 2.533310 -33.628270 8.195019 -13.148155 25.620487 -19.654105 -31.065918 -16.227780 -28.389443 27.056419 -2.339863 78.885775 31.922953 -10.430778 -4.258272 -11.718803 12.055436 -13.539167 3.201133 -24.427817 -0.639644 12.391839 -3.057615 -9.810466 -16.805349 -19.214390 56.202442 -41.447200 14.257085 -8.728089 8.090155 -21.476712 -24.990320 6.878239 -1.937898 37.254846 -0.231702 0.510311 2.130810 -7.868184 -0.179301 -23.169328 -5.149597 -6.129155 -15.972684 3.330850 -4.591389 -3.598506 -2.449517 -0.494832 -16.285655 10.490870 30.444551 9.065820 -57.875936 -2.615255 43.574548 -22.670681 -84.642861 20.655248 11.832807 -15.800404 14.958648 -4.339581 13.958827 0.000000 0.000000 0.000000 0.000000 0.000000 0.000000 0.000000 -14.061236 -25.224744 -4.646977 92.573811 17.710307 42.384702 165.594546 73.291298 176.391004 -17.018817 37.700037 11.383535 -6.213943 -6.484899 -0.000000 0.000000 0.000000 0.000000 0.000000 0.000000 0.000000 
5.975145 16.029305 3.484155 2.386588 -32.801088 8.053934 -13.199670 26.127918 -20.233510 -33.209297 -16.514545 -27.460793 26.064276 -2.729513 75.571682 31.140914 -10.901249 -4.787316 -11.786007 11.215891 -13.863363 3.163226 -24.502004 0.024274 11.963077 -3.768188 -8.452798 -16.407535 -19.912213 54.323287 -43.204976 16.857884 -6.377358 8.351998 -23.785928 -25.359739 7.059674 -2.053284 36.904885 -0.516775 0.351193 2.331076 -7.825368 -0.042572 -23.276094 -5.087900 -6.362068 -16.174270 3.405171 -4.767099 -3.468996 -2.454081 -0.633166 -16.212691 10.634480 30.734916 9.609971 -56.921428 -2.120045 44.336054 -24.012204 -85.157185 20.924203 12.029444 -15.726232 15.172285 -4.361808 13.989354 0.000000 0.000000 0.000000 0.000000 0.000000 0.000000 0.000000 -14.172479 -25.527115 -4.466990 92.453225 17.909186 42.536924 164.531542 71.187246 176.148370 -17.794955 38.081772 12.088223 -6.749690 -6.294415 -0.000000 0.000000 0.000000 0.000000 0.000000 0.000000 0.000000 
